HIERARCHY
ROOT joint_Root
{
	OFFSET 0.0 0.0 0.0
	CHANNELS 6 Xposition Yposition Zposition Zrotation Xrotation Yrotation 
	JOINT Hips
	{
		OFFSET 4.5925 91.4895 -427.239
		CHANNELS 6 Xposition Yposition Zposition Zrotation Xrotation Yrotation 
		JOINT Spine
		{
			OFFSET 15.7357 0.0 0.0
			CHANNELS 6 Xposition Yposition Zposition Zrotation Xrotation Yrotation 
			JOINT Chest
			{
				OFFSET 8.98455 -0.406207 0.0
				CHANNELS 6 Xposition Yposition Zposition Zrotation Xrotation Yrotation 
				JOINT Neck
				{
					OFFSET 16.3773 0.0 0.0
					CHANNELS 6 Xposition Yposition Zposition Zrotation Xrotation Yrotation 
					JOINT Head
					{
						OFFSET 6.45672 0.0 0.0
						CHANNELS 6 Xposition Yposition Zposition Zrotation Xrotation Yrotation 
						End Site
						{
							OFFSET 0.0 0.0 0.0
						}
					}
				}
				JOINT Shoulder_L
				{
					OFFSET 12.9942 -0.242716 4.98039
					CHANNELS 6 Xposition Yposition Zposition Zrotation Xrotation Yrotation 
					JOINT UpperArm_L
					{
						OFFSET 5.34809 0.0 0.0
						CHANNELS 6 Xposition Yposition Zposition Zrotation Xrotation Yrotation 
						JOINT LowerArm_L
						{
							OFFSET 24.3286 1.87007e-05 0.0
							CHANNELS 6 Xposition Yposition Zposition Zrotation Xrotation Yrotation 
							JOINT Hand_L
							{
								OFFSET 22.2916 0.0 0.0
								CHANNELS 6 Xposition Yposition Zposition Zrotation Xrotation Yrotation 
								End Site
								{
									OFFSET 0.0 0.0 0.0
								}
							}
						}
					}
				}
				JOINT Shoulder_R
				{
					OFFSET 12.9945 -0.242716 -4.98039
					CHANNELS 6 Xposition Yposition Zposition Zrotation Xrotation Yrotation 
					JOINT UpperArm_R
					{
						OFFSET -5.34813 0.0 0.0
						CHANNELS 6 Xposition Yposition Zposition Zrotation Xrotation Yrotation 
						JOINT LowerArm_R
						{
							OFFSET -24.3289 0.000322201 0.0
							CHANNELS 6 Xposition Yposition Zposition Zrotation Xrotation Yrotation 
							JOINT Hand_R
							{
								OFFSET -22.2915 -0.000108084 0.0
								CHANNELS 6 Xposition Yposition Zposition Zrotation Xrotation Yrotation 
								End Site
								{
									OFFSET 0.0 0.0 0.0
								}
							}
						}
					}
				}
			}
		}
		JOINT UpperLeg_L
		{
			OFFSET -2.19248 -6.46944 0.0
			CHANNELS 6 Xposition Yposition Zposition Zrotation Xrotation Yrotation 
			JOINT LowerLeg_L
			{
				OFFSET 39.0811 0.0 -1.23785e-05
				CHANNELS 6 Xposition Yposition Zposition Zrotation Xrotation Yrotation 
				JOINT Foot_L
				{
					OFFSET 40.9854 0.0 -1.26872e-05
					CHANNELS 6 Xposition Yposition Zposition Zrotation Xrotation Yrotation 
					JOINT Toes_L
					{
						OFFSET 11.7543 0.0 0.0
						CHANNELS 6 Xposition Yposition Zposition Zrotation Xrotation Yrotation 
						End Site
						{
							OFFSET 0.0 0.0 0.0
						}
					}
				}
			}
		}
		JOINT UpperLeg_R
		{
			OFFSET -2.19251 6.46944 0.0
			CHANNELS 6 Xposition Yposition Zposition Zrotation Xrotation Yrotation 
			JOINT LowerLeg_R
			{
				OFFSET -39.0811 -0.00228153 -0.0401928
				CHANNELS 6 Xposition Yposition Zposition Zrotation Xrotation Yrotation 
				JOINT Foot_R
				{
					OFFSET -40.9854 0.0 0.0
					CHANNELS 6 Xposition Yposition Zposition Zrotation Xrotation Yrotation 
					JOINT Toes_R
					{
						OFFSET -11.7543 0.0 0.0
						CHANNELS 6 Xposition Yposition Zposition Zrotation Xrotation Yrotation 
						End Site
						{
							OFFSET 0.0 0.0 0.0
						}
					}
				}
			}
		}
	}
}
MOTION
Frames:	4
Frame Time:	0.0333333
0.000000 0.000000 0.000000 0.000000 0.000000 -0.000000 -0.941788 85.449600 -1.586640 88.373400 -0.998641 6.504850 15.735700 0.000005 -0.000001 91.644800 81.622900 -91.704000 8.984550 -0.406207 -0.000000 8.981780 0.477777 -0.155651 16.377300 -0.000001 -0.000001 -0.437184 -5.205500 1.823360 6.456720 -0.000001 -0.000000 -3.216980 -7.120990 5.929080 12.994200 -0.242716 4.980390 -91.996300 6.167780 -72.025700 5.348090 -0.000007 -0.000001 -63.736500 16.264700 -20.180300 24.328600 0.000019 0.000005 4.249260 10.870200 -21.502600 22.291600 -0.000001 0.000005 10.407900 5.195340 2.837940 12.994500 -0.242716 -4.980390 88.407600 9.647690 -80.582000 -5.348130 -0.000001 -0.000004 -59.235800 31.396100 -10.928400 -24.328900 0.000322 -0.000009 -2.581410 -4.445730 -30.173200 -22.291500 -0.000108 -0.000004 15.672300 5.464050 -5.140440 -2.192480 -6.469440 -0.000000 -175.028000 -7.905050 -16.742000 39.081100 -0.000007 -0.000012 -0.362135 0.269690 53.325000 40.985400 -0.000006 -0.000013 0.927317 4.296060 -80.214400 11.754300 -0.000000 0.000003 -0.000320 -0.002744 -16.679500 -2.192510 6.469440 -0.000001 178.269000 17.718600 164.635000 -39.081100 -0.002282 -0.040193 0.077108 -0.055901 52.884300 -40.985400 0.000008 0.000006 6.907130 5.835580 -80.414700 -11.754300 -0.000006 -0.000006 -0.394264 -0.486869 -17.368400
0.000000 0.000000 0.000000 0.000000 0.000000 -0.000000 -0.421639 85.716000 -0.935068 88.916400 -2.594180 7.033470 15.735700 0.000005 -0.000001 93.364900 81.756000 -92.886800 8.984550 -0.406207 -0.000000 8.690640 0.966845 0.881877 16.377300 -0.000001 -0.000001 0.370023 -4.757570 2.155750 6.456720 -0.000001 -0.000000 -2.956880 -6.455720 4.417780 12.994200 -0.242716 4.980390 -91.708300 5.076120 -71.371100 5.348090 -0.000007 -0.000001 -61.044200 3.491930 -20.126300 24.328600 0.000019 0.000005 4.160890 11.113700 -20.677600 22.291600 -0.000001 0.000005 8.225690 5.142800 4.118390 12.994500 -0.242716 -4.980390 88.353600 9.442550 -80.062300 -5.348130 -0.000001 -0.000004 -60.479700 27.398200 -10.790700 -24.328900 0.000322 -0.000009 -1.431060 -2.792500 -27.117100 -22.291500 -0.000108 -0.000004 16.844000 5.478300 -5.690510 -2.192480 -6.469440 -0.000000 -175.840000 -8.542310 -14.845900 39.081100 -0.000007 -0.000012 -0.356855 0.277701 52.111100 40.985400 -0.000006 -0.000013 0.816193 3.234050 -80.314700 11.754300 -0.000000 0.000003 -0.000356 -0.003001 -16.688700 -2.192510 6.469440 -0.000001 177.145000 16.402900 165.857000 -39.081100 -0.002282 -0.040193 0.069340 -0.051348 52.159300 -40.985400 0.000008 0.000006 6.664820 6.469770 -80.214300 -11.754300 -0.000006 -0.000006 -0.460993 -0.567531 -17.443500
0.000000 0.000000 0.000000 0.000000 0.000000 -0.000000 0.253456 86.797400 -0.139747 89.745500 -4.547970 7.359960 15.735700 0.000005 -0.000001 95.785400 82.160500 -94.637000 8.984550 -0.406207 -0.000000 7.820560 1.574500 2.186900 16.377300 -0.000001 -0.000001 1.711360 -4.296850 2.344220 6.456720 -0.000001 -0.000000 -2.760020 -5.587330 1.923910 12.994200 -0.242716 4.980390 -91.291800 3.704940 -70.761800 5.348090 -0.000007 -0.000001 -53.548500 -9.108080 -22.547200 24.328600 0.000019 0.000005 3.386010 11.042200 -17.162000 22.291600 -0.000001 0.000005 10.598600 5.060840 5.984410 12.994500 -0.242716 -4.980390 88.368800 8.714080 -79.354000 -5.348130 -0.000001 -0.000004 -62.253400 23.238200 -9.778730 -24.328900 0.000322 -0.000009 -1.423740 -3.125560 -24.496100 -22.291500 -0.000108 -0.000004 18.659500 5.419530 -3.600660 -2.192480 -6.469440 -0.000000 -177.203000 -8.847860 -11.604100 39.081100 -0.000007 -0.000012 -0.351420 0.317779 47.878700 40.985400 -0.000006 -0.000013 0.486727 1.510140 -79.036200 11.754300 -0.000000 0.000003 -0.000335 -0.002855 -16.683500 -2.192510 6.469440 -0.000001 175.694000 14.996800 168.160000 -39.081100 -0.002282 -0.040193 0.054515 -0.044964 48.745300 -40.985400 0.000008 0.000006 6.227650 7.576550 -78.674300 -11.754300 -0.000006 -0.000006 -0.442819 -0.546262 -17.614600
0.000000 0.000000 0.000000 0.000000 0.000000 -0.000000 0.843384 88.130800 0.723596 90.276200 -6.486210 7.336970 15.735700 0.000005 -0.000001 99.885400 82.778900 -97.960800 8.984550 -0.406207 -0.000000 6.428030 2.449580 3.707700 16.377300 -0.000001 -0.000001 3.266390 -4.029310 2.450280 6.456720 -0.000001 -0.000000 -2.477300 -5.127610 -0.399588 12.994200 -0.242716 4.980390 -90.677300 1.910830 -70.478900 5.348090 -0.000007 -0.000001 -47.662600 -27.106500 -26.886400 24.328600 0.000019 0.000005 0.596936 2.024350 -16.494300 22.291600 -0.000001 0.000005 13.841600 4.995040 7.420320 12.994500 -0.242716 -4.980390 88.339500 8.110140 -78.388100 -5.348130 -0.000001 -0.000004 -62.577400 20.958600 -7.991840 -24.328900 0.000322 -0.000009 -2.632180 -6.156030 -23.198700 -22.291500 -0.000108 -0.000004 19.072300 5.394220 -2.751020 -2.192480 -6.469440 -0.000000 -178.216000 -9.426490 -8.093050 39.081100 -0.000007 -0.000012 -0.302669 0.332395 42.320700 40.985400 -0.000006 -0.000013 0.299827 0.119566 -77.095700 11.754300 -0.000000 0.000003 -0.000311 -0.002677 -16.677200 -2.192510 6.469440 -0.000001 174.582000 14.252000 170.742000 -39.081100 -0.002282 -0.040193 0.038911 -0.036862 44.037800 -40.985400 0.000008 0.000006 5.906650 9.258390 -76.444900 -11.754300 -0.000006 -0.000006 -0.400257 -0.497112 -17.920400
